<svg id="visual" viewBox="0 0 960 300" width="960" height="300" xmlns="http://www.w3.org/2000/svg" xmlns:xlink="http://www.w3.org/1999/xlink" version="1.1"><rect x="0" y="0" width="960" height="300" fill="#0a0f14"></rect><path d="M0 147L17.8 146C35.7 145 71.3 143 106.8 142.7C142.3 142.3 177.7 143.7 213.2 156.7C248.7 169.7 284.3 194.3 320 202C355.7 209.7 391.3 200.3 426.8 203.7C462.3 207 497.7 223 533.2 230.3C568.7 237.7 604.3 236.3 640 224.2C675.7 212 711.3 189 746.8 170.5C782.3 152 817.7 138 853.2 133.3C888.7 128.7 924.3 133.3 942.2 135.7L960 138L960 301L942.2 301C924.3 301 888.7 301 853.2 301C817.7 301 782.3 301 746.8 301C711.3 301 675.7 301 640 301C604.3 301 568.7 301 533.2 301C497.7 301 462.3 301 426.8 301C391.3 301 355.7 301 320 301C284.3 301 248.7 301 213.2 301C177.7 301 142.3 301 106.8 301C71.3 301 35.7 301 17.8 301L0 301Z" fill="#10151a" stroke-linecap="round" stroke-linejoin="miter"></path></svg>