<svg id="visual" viewBox="0 0 960 300" width="960" height="300" xmlns="http://www.w3.org/2000/svg" xmlns:xlink="http://www.w3.org/1999/xlink" version="1.1"><rect x="0" y="0" width="960" height="300" fill="#0a0f14"></rect><path d="M0 74L22.8 68C45.7 62 91.3 50 137 44.5C182.7 39 228.3 40 274 52C319.7 64 365.3 87 411.2 91.3C457 95.7 503 81.3 548.8 80.8C594.7 80.3 640.3 93.7 686 96.2C731.7 98.7 777.3 90.3 823 86.7C868.7 83 914.3 84 937.2 84.5L960 85L960 0L937.2 0C914.3 0 868.7 0 823 0C777.3 0 731.7 0 686 0C640.3 0 594.7 0 548.8 0C503 0 457 0 411.2 0C365.3 0 319.7 0 274 0C228.3 0 182.7 0 137 0C91.3 0 45.7 0 22.8 0L0 0Z" fill="#10151a" stroke-linecap="round" stroke-linejoin="miter"></path></svg>