<svg id="visual" viewBox="0 0 960 300" width="960" height="300" xmlns="http://www.w3.org/2000/svg" xmlns:xlink="http://www.w3.org/1999/xlink" version="1.1"><rect x="0" y="0" width="960" height="300" fill="#0a0f14"></rect><path d="M0 261L22.8 252.5C45.7 244 91.3 227 137 216.2C182.7 205.3 228.3 200.7 274 208.3C319.7 216 365.3 236 411.2 246.7C457 257.3 503 258.7 548.8 250.2C594.7 241.7 640.3 223.3 686 222.5C731.7 221.7 777.3 238.3 823 243C868.7 247.7 914.3 240.3 937.2 236.7L960 233L960 301L937.2 301C914.3 301 868.7 301 823 301C777.3 301 731.7 301 686 301C640.3 301 594.7 301 548.8 301C503 301 457 301 411.2 301C365.3 301 319.7 301 274 301C228.3 301 182.7 301 137 301C91.3 301 45.7 301 22.8 301L0 301Z" fill="#eeeeee" stroke-linecap="round" stroke-linejoin="miter"></path></svg>