<svg id="visual" viewBox="0 0 960 300" width="960" height="300" xmlns="http://www.w3.org/2000/svg" xmlns:xlink="http://www.w3.org/1999/xlink" version="1.1"><rect x="0" y="0" width="960" height="300" fill="#a6a6a6"></rect><path d="M0 257L13.3 252.3C26.7 247.7 53.3 238.3 80 233.3C106.7 228.3 133.3 227.7 160 232.7C186.7 237.7 213.3 248.3 240 243.2C266.7 238 293.3 217 320 208.7C346.7 200.3 373.3 204.7 400 206C426.7 207.3 453.3 205.7 480 207.8C506.7 210 533.3 216 560 223.8C586.7 231.7 613.3 241.3 640 239.7C666.7 238 693.3 225 720 217.7C746.7 210.3 773.3 208.7 800 208C826.7 207.3 853.3 207.7 880 216.7C906.7 225.7 933.3 243.3 946.7 252.2L960 261L960 0L946.7 0C933.3 0 906.7 0 880 0C853.3 0 826.7 0 800 0C773.3 0 746.7 0 720 0C693.3 0 666.7 0 640 0C613.3 0 586.7 0 560 0C533.3 0 506.7 0 480 0C453.3 0 426.7 0 400 0C373.3 0 346.7 0 320 0C293.3 0 266.7 0 240 0C213.3 0 186.7 0 160 0C133.3 0 106.7 0 80 0C53.3 0 26.7 0 13.3 0L0 0Z" fill="#545454"></path><path d="M0 112L13.3 124.2C26.7 136.3 53.3 160.7 80 172.8C106.7 185 133.3 185 160 182.2C186.7 179.3 213.3 173.7 240 161.8C266.7 150 293.3 132 320 124C346.7 116 373.3 118 400 129.2C426.7 140.3 453.3 160.7 480 162.2C506.7 163.7 533.3 146.3 560 134.3C586.7 122.3 613.3 115.7 640 114.8C666.7 114 693.3 119 720 124C746.7 129 773.3 134 800 136C826.7 138 853.3 137 880 133.5C906.7 130 933.3 124 946.7 121L960 118L960 0L946.7 0C933.3 0 906.7 0 880 0C853.3 0 826.7 0 800 0C773.3 0 746.7 0 720 0C693.3 0 666.7 0 640 0C613.3 0 586.7 0 560 0C533.3 0 506.7 0 480 0C453.3 0 426.7 0 400 0C373.3 0 346.7 0 320 0C293.3 0 266.7 0 240 0C213.3 0 186.7 0 160 0C133.3 0 106.7 0 80 0C53.3 0 26.7 0 13.3 0L0 0Z" fill="#2f3033"></path><path d="M0 54L13.3 59.8C26.7 65.7 53.3 77.3 80 80.2C106.7 83 133.3 77 160 77.7C186.7 78.3 213.3 85.7 240 79.7C266.7 73.7 293.3 54.3 320 46.8C346.7 39.3 373.3 43.7 400 51.7C426.7 59.7 453.3 71.3 480 72.8C506.7 74.3 533.3 65.7 560 60.2C586.7 54.7 613.3 52.3 640 61.5C666.7 70.7 693.3 91.3 720 102.7C746.7 114 773.3 116 800 103.5C826.7 91 853.3 64 880 58.2C906.7 52.3 933.3 67.7 946.7 75.3L960 83L960 0L946.7 0C933.3 0 906.7 0 880 0C853.3 0 826.7 0 800 0C773.3 0 746.7 0 720 0C693.3 0 666.7 0 640 0C613.3 0 586.7 0 560 0C533.3 0 506.7 0 480 0C453.3 0 426.7 0 400 0C373.3 0 346.7 0 320 0C293.3 0 266.7 0 240 0C213.3 0 186.7 0 160 0C133.3 0 106.7 0 80 0C53.3 0 26.7 0 13.3 0L0 0Z" fill="#0a0f14"></path></svg>