<svg id="visual" viewBox="0 0 960 300" width="960" height="300" xmlns="http://www.w3.org/2000/svg" xmlns:xlink="http://www.w3.org/1999/xlink" version="1.1"><rect x="0" y="0" width="960" height="300" fill="#eee"></rect><path d="M0 41L13.3 45.7C26.7 50.3 53.3 59.7 80 64.7C106.7 69.7 133.3 70.3 160 65.3C186.7 60.3 213.3 49.7 240 54.8C266.7 60 293.3 81 320 89.3C346.7 97.7 373.3 93.3 400 92C426.7 90.7 453.3 92.3 480 90.2C506.7 88 533.3 82 560 74.2C586.7 66.3 613.3 56.7 640 58.3C666.7 60 693.3 73 720 80.3C746.7 87.7 773.3 89.3 800 90C826.7 90.7 853.3 90.3 880 81.3C906.7 72.3 933.3 54.7 946.7 45.8L960 37L960 301L946.7 301C933.3 301 906.7 301 880 301C853.3 301 826.7 301 800 301C773.3 301 746.7 301 720 301C693.3 301 666.7 301 640 301C613.3 301 586.7 301 560 301C533.3 301 506.7 301 480 301C453.3 301 426.7 301 400 301C373.3 301 346.7 301 320 301C293.3 301 266.7 301 240 301C213.3 301 186.7 301 160 301C133.3 301 106.7 301 80 301C53.3 301 26.7 301 13.3 301L0 301Z" fill="#545454"></path><path d="M0 186L13.3 173.8C26.7 161.7 53.3 137.3 80 125.2C106.7 113 133.3 113 160 115.8C186.7 118.7 213.3 124.3 240 136.2C266.7 148 293.3 166 320 174C346.7 182 373.3 180 400 168.8C426.7 157.7 453.3 137.3 480 135.8C506.7 134.3 533.3 151.7 560 163.7C586.7 175.7 613.3 182.3 640 183.2C666.7 184 693.3 179 720 174C746.7 169 773.3 164 800 162C826.7 160 853.3 161 880 164.5C906.7 168 933.3 174 946.7 177L960 180L960 301L946.7 301C933.3 301 906.7 301 880 301C853.3 301 826.7 301 800 301C773.3 301 746.7 301 720 301C693.3 301 666.7 301 640 301C613.3 301 586.7 301 560 301C533.3 301 506.7 301 480 301C453.3 301 426.7 301 400 301C373.3 301 346.7 301 320 301C293.3 301 266.7 301 240 301C213.3 301 186.7 301 160 301C133.3 301 106.7 301 80 301C53.3 301 26.7 301 13.3 301L0 301Z" fill="#2f3033"></path><path d="M0 244L13.3 238.2C26.7 232.3 53.3 220.7 80 217.8C106.7 215 133.3 221 160 220.3C186.7 219.7 213.3 212.3 240 218.3C266.7 224.3 293.3 243.7 320 251.2C346.7 258.7 373.3 254.3 400 246.3C426.7 238.3 453.3 226.7 480 225.2C506.7 223.7 533.3 232.3 560 237.8C586.7 243.3 613.3 245.7 640 236.5C666.7 227.3 693.3 206.7 720 195.3C746.7 184 773.3 182 800 194.5C826.7 207 853.3 234 880 239.8C906.7 245.7 933.3 230.3 946.7 222.7L960 215L960 301L946.7 301C933.3 301 906.7 301 880 301C853.3 301 826.7 301 800 301C773.3 301 746.7 301 720 301C693.3 301 666.7 301 640 301C613.3 301 586.7 301 560 301C533.3 301 506.7 301 480 301C453.3 301 426.7 301 400 301C373.3 301 346.7 301 320 301C293.3 301 266.7 301 240 301C213.3 301 186.7 301 160 301C133.3 301 106.7 301 80 301C53.3 301 26.7 301 13.3 301L0 301Z" fill="#0a0f14"></path></svg>