<svg id="eXiOnsGkrMd1" xmlns="http://www.w3.org/2000/svg" xmlns:xlink="http://www.w3.org/1999/xlink" viewBox="0 0 692.68042 327.47189" shape-rendering="geometricPrecision" text-rendering="geometricPrecision"><path d="M207.95311,68.81363c.05771.00986.1442.0245.24904.04185c2.05136.33957,14.45374,2.25308,26.95784-2.51012c5.29715-2.01785,3.49015-2.52077,15.28773-9.53614c13.83138-8.22473,17.38101-8.16726,18.41101-12.0023c2.05667-7.65797-8.92542-19.69644-16.19439-18.90382-1.91376.20869-3.96328,1.34963-7.15104.57599-.70038-.16997-3.76626-.91402-5.26088-3.4518-1.33332-2.26389-.20403-3.89699-.74025-5.7537-1.40748-4.87362-13.14017-7.30582-23.42653-5.58734-5.91628.98842-10.51802,3.68683-19.47981,9.04331-15.59837,9.32311-23.39745,13.98468-25.15035,21.1267-1.66142,6.76936,2.32619,9.68618-.57391,16.93255-2.70041,6.74725-6.98935,6.29661-8.46524,11.75484-2.37505,8.78336,6.44004,18.42314,10.11211,22.4388c4.02599,4.40267,7.87633,6.81902,12.98792,10.02686c6.41596,4.02642,9.62385,6.03962,13.48076,5.83479c6.99272-.37136,27.77163.89278,28.04263-4.8939.10155-2.16864,25.30287-.39298,12.89362-23.7409-1.52204-2.86374-31.3393.19518-31.73285-1.44996" fill="#2f2e41"/><polygon points="492.19363,301.23849 521.24635,303.86831 557.32791,322.19307 563.27837,300.94149 568.4751,274.03646 557.64851,261.28551 538.94711,274.03646 499.84419,269.78612 492.19363,301.23849" fill="#ffb6b6"/><polygon points="253.32578,212.83187 231.22415,321.64 391.88614,275.73659 495.59389,304.63875 510.89502,271.48626 396.13644,223.03264 301.77942,224.73278 253.32578,212.83187" fill="#2f2e41"/><path d="M560.58812,272.88506l3.40025,2.5502-21.11156,39.95731c0,0,14.26097,8.32013,18.51129,8.32013s18.75149-82.28,17.05136-94.43188-12.75095-8.24963-12.75095-8.24963L541.83394,271.4252l18.7542,1.45987h-.00003Z" fill="#2f2e41"/><path d="M90.19861,259.08639c-2.22827-.23975-3.09741,2.81052-1.08447,3.79572c2.91522,1.42682,5.65747,3.22449,7.08679,5.35333c3.6543,5.44269,8.70343,2.29651,9.42133,1.80804c1.18036,1.96481,1.76154,3.95047,2.01196,5.71582l-1.72217,5.7063c-.07495.38126.0033-.0112,0,0v0l-1.32019,14.52243c-.90436,3.52759-.22186,6.92426,0,7.92133l-1.32019,18.48309l3.69104.02966.39789-18.08258.07703-.02258c-.00214-.00742-.03003-.10638-.07031-.28308l.16443-7.47186c.33209-1.27954.85791-2.6243,1.65973-3.95911.7179.48846,5.76703,3.63461,9.42133-1.80804c1.42932-2.12885,4.17157-3.92651,7.08679-5.35333c2.013-.98523,1.1438-4.03546-1.08447-3.79572-1.88776.20312-3.94708.50797-6.13757.95401-9.28784,1.8912-9.48071,8.19778-9.39935,9.64383l-.06311-.03937c-.6344,1.0177-1.10504,2.04324-1.45447,3.04532l.30957-14.06967c.19177-.9967,2.33801-2.57559,2.0025-4.99521l-1.43542-20.77673c.50684.87027,1.06842,1.43546,1.59839,1.37494c1.26727-.14471,1.90594-3.81177,1.74548-6.48105c1.57483,2.18188,4.56189,4.71756,5.651,3.98901.8241-.5513.33545-2.82092-.56433-4.88434c1.87482,1.12949,3.95117,1.87186,4.59552,1.15463.87921-.97873-1.2276-4.31827-3.17059-6.18246c2.60083.24255,5.90857-.17181,6.12543-1.3555.17871-.97531-1.78992-2.20596-3.89703-2.99805c2.11639-.55804,4.09552-1.53036,4.02991-2.49228-.09351-1.37027-4.30072-2.19919-6.99231-2.01553-.15497.01056-.3006.02463-.43921.04132c2.30585-1.3985,5.14258-4.28232,4.47894-5.43753-.4939-.85974-2.79156-.52673-4.91144.2305c1.25452-1.79355,2.13647-3.81458,1.46478-4.50623-.95691-.98526-4.70325,1.10098-6.63861,2.98053-.18018.17499-.33813.34195-.47601.50177.00696-.13718.01099-.28073.01099-.43323c0-2.69788-1.1134-6.83887-2.48688-6.83887-.96411,0-1.7995,2.04074-2.21216,4.19025-.93365-2.04828-2.29547-3.92859-3.25635-3.68393-1.14856.29245-1.34802,3.52484-.95349,6.08563-2.02661-1.64374-4.99622-3.1308-5.83295-2.26923-.67169.69165.21027,2.71268,1.46478,4.50623-2.11987-.75723-4.41754-1.09024-4.91144-.2305-.53729.93518,1.21948,3.00293,3.13147,4.49875-2.53485.11649-5.47321.88214-5.55115,2.02481-.06561.96191,1.91351,1.93423,4.02991,2.49228-2.10712.79208-4.07568,2.02277-3.89703,2.99805.21686,1.18369,3.52466,1.59805,6.12543,1.3555-1.94299,1.8642-4.0498,5.20374-3.17059,6.18246.64435.71722,2.7207-.02515,4.59552-1.15463-.89978,2.06339-1.38849,4.33304-.56433,4.88434c1.03137.68994,3.76532-1.54755,5.38983-3.63962-.23828,2.6712.31866,6.43002,1.59613,6.60434.98242.13406,2.12213-1.88861,2.81738-4.0296.20862.66647.45886,1.31668.73389,1.89011l-.42535,19.32935c-.35345-1.43094-.93842-2.94705-1.87231-4.44519l-.06311.03934c.08136-1.44589-.11139-7.75262-9.39935-9.64389-2.19055-.44604-4.24988-.75089-6.13757-.95401l.00018-.00006Zm16.93048,39.62045l-.06958,3.16229c-.06366-.88736-.07074-1.96661.06958-3.16229Z" fill="#f2f2f2"/><polygon points="187.55029,118.17785 198.6011,79.07493 225.80316,79.92498 235.15384,111.37732 187.55029,118.17785" fill="#ffb6b6"/><path d="M193.3963,106.99901l-.00003.00002c0,0-8.07559-2.12517-23.37674,17.4263s-8.50061,158.96187-8.50061,158.96187l110.93329-25.07687-29.0288-99.9399-5.8238-53.07155-44.20331,1.70013v.00002Z" transform="translate(0 1.64728)" fill="#f43383"/><g transform="matrix(.98572-.168394 0.168394 0.98572-3.524474 47.46263)"><path d="M366.45686,142.90533l-36.49368,21.12966l8.01522,14.73706l37.21484-20.36362c3.9959-.20038,7.88572-1.3548,11.34401-3.36667c8.72489-4.91682,13.25945-13.39999,10.13164-18.95069s-12.73366-6.06558-21.45478-1.14934c-3.51317,1.91705-6.51604,4.64778-8.75724,7.96361Z" fill="#ffb6b6"/><polygon points="191.56717,146.19036 267.57108,215.8051 372.23734,165.16674 359.1078,139.0705 284.35672,168.70453 212.68449,111.00562 191.56717,146.19036" fill="#e82c7a"/></g><path d="M166.61932,268.08605l30.60229-48.45361c0,0,61.20456-61.20456,84.15628-56.10419s50.15375,101.15753,50.15375,101.15753l-22.95172,14.45108-40.80304-56.95425c0,0-4.25034,78.20581-16.89084,95.20709s-63.86517,9.35071-82.56659,0-1.70013-49.30368-1.70013-49.30368v.00003Z" fill="#2f2e41"/><polygon points="306.87979,268.93609 310.28003,285.08727 308.57993,295.28805 314.53036,307.18892 361.28384,312.2893 363.83405,290.18767 339.18219,277.4367 321.33087,259.58538 306.87979,268.93609" fill="#ffb6b6"/><path d="M357.88361,303.78869l-2.5502,3.40024-48.96231-14.10971c0,0,2.20883,21.76025,2.20883,26.01059s80.75604,4.25034,92.90793,2.5502s8.24963-12.75095,8.24963-12.75095l-50.39401-23.85458-1.45987,18.75418v.00003Z" fill="#2f2e41"/><g transform="translate(-5.605057-4.680331)"><path d="M354.47742,147.35355c-3.60071,1.74715-6.73051,4.33139-9.12745,7.53648l-37.46074,19.36345l7.30257,15.10287l38.14453-18.56385c4.00091-.0094,7.94143-.97681,11.49181-2.82129c8.94968-4.49473,13.884-12.75178,11.02474-18.44545s-12.42957-6.66652-21.37543-2.17222l-.00003.00002Z" fill="#ffb6b6"/><polygon points="170.50291,149.82247 243.09692,222.98611 350.06122,177.40199 338.1924,150.70874 262.11191,176.74053 193.27579,115.68595 170.50291,149.82247" fill="#f43383"/></g><circle r="39.3954" transform="translate(213.626 55.1278)" fill="#ffb6b6"/><path d="M200.93696,57.67721c.05771.00986.1442.0245.24904.04185c2.05136.33957,14.45374,2.25308,26.95784-2.51012c5.29715-2.01785,3.49015-2.52077,15.28773-9.53614c13.83138-8.22473,17.38101-8.16726,18.41101-12.0023c2.05667-7.65797-8.92542-19.69644-16.19439-18.90382-1.91376.20869-3.96328,1.34963-7.15104.57599-.70038-.16997-3.76626-.91402-5.26088-3.4518-1.33332-2.26389-.20403-3.89699-.74025-5.7537-1.40748-4.87362-13.14017-7.30582-23.42653-5.58734-5.91628.98842-10.51802,3.68683-19.47981,9.04331-15.59837,9.32311-23.39748,13.98468-25.15035,21.12671-1.66142,6.76935,2.32619,9.68619-.57391,16.93256-2.70041,6.74725-6.98935,6.29661-8.46524,11.75484-2.37505,8.78336,6.44004,18.42314,10.11211,22.4388c4.02599,4.40267,7.87633,6.81902,12.98792,10.02686c6.41596,4.02642,9.62385,6.03962,13.48076,5.83479c6.99272-.37136,13.94788-6.70843,14.21893-12.49513.10155-2.16864-.80314-2.81903-3.04218-10.2743-.93279-3.10603-1.57983-5.67019-1.97334-7.31533" transform="matrix(1.222126 0 0 1.128452-51.200903 4.858955)" fill="#464460"/><g transform="matrix(-.674405 0.326735 0.370163 0.764044 672.097676-11.940272)"><path d="M207.95311,68.81363c.05771.00986.1442.0245.24904.04185c2.05136.33957,14.45374,2.25308,26.95784-2.51012c5.29715-2.01785,3.49015-2.52077,15.28773-9.53614c13.83138-8.22473,17.38101-8.16726,18.41101-12.0023c2.05667-7.65797-8.92542-19.69644-16.19439-18.90382-1.91376.20869-3.96328,1.34963-7.15104.57599-.70038-.16997-3.76626-.91402-5.26088-3.4518-1.33332-2.26389-.20403-3.89699-.74025-5.7537-1.40748-4.87362-13.14017-7.30582-23.42653-5.58734-5.91628.98842-10.51802,3.68683-19.47981,9.04331-15.59837,9.32311-23.39745,13.98468-25.15035,21.1267-1.66142,6.76936,2.32619,9.68618-.57391,16.93255-2.70041,6.74725-6.98935,6.29661-8.46524,11.75484-2.37505,8.78336,6.44004,18.42314,10.11211,22.4388c4.02599,4.40267,7.87633,6.81902,12.98792,10.02686c6.41596,4.02642,9.62385,6.03962,13.48076,5.83479c6.99272-.37136,27.77163.89278,28.04263-4.8939.10155-2.16864,25.30287-.39298,12.89362-23.7409-1.52204-2.86374-31.3393.19518-31.73285-1.44996" fill="#2f2e41"/><polygon points="492.19363,301.23849 521.24635,303.86831 557.32791,322.19307 563.27837,300.94149 568.4751,274.03646 557.64851,261.28551 538.94711,274.03646 499.84419,269.78612 492.19363,301.23849" fill="#ffb6b6"/><polygon points="253.32578,212.83187 231.22415,321.64 391.88614,275.73659 495.59389,304.63875 510.89502,271.48626 396.13644,223.03264 301.77942,224.73278 253.32578,212.83187" fill="#2f2e41"/><path d="M560.58812,272.88506l3.40025,2.5502-21.11156,39.95731c0,0,14.26097,8.32013,18.51129,8.32013s18.75149-82.28,17.05136-94.43188-12.75095-8.24963-12.75095-8.24963L541.83394,271.4252l18.7542,1.45987h-.00003Z" fill="#2f2e41"/><path d="M90.19861,259.08639c-2.22827-.23975-3.09741,2.81052-1.08447,3.79572c2.91522,1.42682,5.65747,3.22449,7.08679,5.35333c3.6543,5.44269,8.70343,2.29651,9.42133,1.80804c1.18036,1.96481,1.76154,3.95047,2.01196,5.71582l-1.72217,5.7063c-.07495.38126.0033-.0112,0,0v0l-1.32019,14.52243c-.90436,3.52759-.22186,6.92426,0,7.92133l-1.32019,18.48309l3.69104.02966.39789-18.08258.07703-.02258c-.00214-.00742-.03003-.10638-.07031-.28308l.16443-7.47186c.33209-1.27954.85791-2.6243,1.65973-3.95911.7179.48846,5.76703,3.63461,9.42133-1.80804c1.42932-2.12885,4.17157-3.92651,7.08679-5.35333c2.013-.98523,1.1438-4.03546-1.08447-3.79572-1.88776.20312-3.94708.50797-6.13757.95401-9.28784,1.8912-9.48071,8.19778-9.39935,9.64383l-.06311-.03937c-.6344,1.0177-1.10504,2.04324-1.45447,3.04532l.30957-14.06967c.19177-.9967,2.33801-2.57559,2.0025-4.99521l-1.43542-20.77673c.50684.87027,1.06842,1.43546,1.59839,1.37494c1.26727-.14471,1.90594-3.81177,1.74548-6.48105c1.57483,2.18188,4.56189,4.71756,5.651,3.98901.8241-.5513.33545-2.82092-.56433-4.88434c1.87482,1.12949,3.95117,1.87186,4.59552,1.15463.87921-.97873-1.2276-4.31827-3.17059-6.18246c2.60083.24255,5.90857-.17181,6.12543-1.3555.17871-.97531-1.78992-2.20596-3.89703-2.99805c2.11639-.55804,4.09552-1.53036,4.02991-2.49228-.09351-1.37027-4.30072-2.19919-6.99231-2.01553-.15497.01056-.3006.02463-.43921.04132c2.30585-1.3985,5.14258-4.28232,4.47894-5.43753-.4939-.85974-2.79156-.52673-4.91144.2305c1.25452-1.79355,2.13647-3.81458,1.46478-4.50623-.95691-.98526-4.70325,1.10098-6.63861,2.98053-.18018.17499-.33813.34195-.47601.50177.00696-.13718.01099-.28073.01099-.43323c0-2.69788-1.1134-6.83887-2.48688-6.83887-.96411,0-1.7995,2.04074-2.21216,4.19025-.93365-2.04828-2.29547-3.92859-3.25635-3.68393-1.14856.29245-1.34802,3.52484-.95349,6.08563-2.02661-1.64374-4.99622-3.1308-5.83295-2.26923-.67169.69165.21027,2.71268,1.46478,4.50623-2.11987-.75723-4.41754-1.09024-4.91144-.2305-.53729.93518,1.21948,3.00293,3.13147,4.49875-2.53485.11649-5.47321.88214-5.55115,2.02481-.06561.96191,1.91351,1.93423,4.02991,2.49228-2.10712.79208-4.07568,2.02277-3.89703,2.99805.21686,1.18369,3.52466,1.59805,6.12543,1.3555-1.94299,1.8642-4.0498,5.20374-3.17059,6.18246.64435.71722,2.7207-.02515,4.59552-1.15463-.89978,2.06339-1.38849,4.33304-.56433,4.88434c1.03137.68994,3.76532-1.54755,5.38983-3.63962-.23828,2.6712.31866,6.43002,1.59613,6.60434.98242.13406,2.12213-1.88861,2.81738-4.0296.20862.66647.45886,1.31668.73389,1.89011l-.42535,19.32935c-.35345-1.43094-.93842-2.94705-1.87231-4.44519l-.06311.03934c.08136-1.44589-.11139-7.75262-9.39935-9.64389-2.19055-.44604-4.24988-.75089-6.13757-.95401l.00018-.00006Zm16.93048,39.62045l-.06958,3.16229c-.06366-.88736-.07074-1.96661.06958-3.16229Z" fill="#f2f2f2"/><polygon points="187.55029,118.17785 198.6011,79.07493 225.80316,79.92498 235.15384,111.37732 187.55029,118.17785" fill="#ffb6b6"/><path d="M193.3963,106.99901l-.00003.00002c0,0-8.07559-2.12517-23.37674,17.4263s-8.50061,158.96187-8.50061,158.96187l110.93329-25.07687-29.0288-99.9399-5.8238-53.07155-44.20331,1.70013v.00002Z" fill="#f5575e"/><g><path d="M366.45686,142.90533l-36.49368,21.12966l8.01522,14.73706l37.21484-20.36362c3.9959-.20038,7.88572-1.3548,11.34401-3.36667c8.72489-4.91682,13.25945-13.39999,10.13164-18.95069s-12.73366-6.06558-21.45478-1.14934c-3.51317,1.91705-6.51604,4.64778-8.75724,7.96361Z" fill="#ffb6b6"/><polygon points="191.56717,146.19036 267.57108,215.8051 372.23734,165.16674 359.1078,139.0705 284.35672,168.70453 212.68449,111.00562 191.56717,146.19036" fill="#f5575e"/></g><path d="M166.61932,268.08605l30.60229-48.45361c0,0,61.20456-61.20456,84.15628-56.10419s50.15375,101.15753,50.15375,101.15753l-22.95172,14.45108-40.80304-56.95425c0,0-4.25034,78.20581-16.89084,95.20709s-63.86517,9.35071-82.56659,0-1.70013-49.30368-1.70013-49.30368v.00003Z" fill="#2f2e41"/><polygon points="306.87979,268.93609 310.28003,285.08727 308.57993,295.28805 314.53036,307.18892 361.28384,312.2893 363.83405,290.18767 339.18219,277.4367 321.33087,259.58538 306.87979,268.93609" fill="#ffb6b6"/><path d="M357.88361,303.78869l-2.5502,3.40024-48.96231-14.10971c0,0,2.20883,21.76025,2.20883,26.01059s80.75604,4.25034,92.90793,2.5502s8.24963-12.75095,8.24963-12.75095l-50.39401-23.85458-1.45987,18.75418v.00003Z" fill="#2f2e41"/><g transform="translate(-5.605057-4.680331)"><path d="M354.47742,147.35355c-3.60071,1.74715-6.73051,4.33139-9.12745,7.53648l-37.46074,19.36345l7.30257,15.10287l38.14453-18.56385c4.00091-.0094,7.94143-.97681,11.49181-2.82129c8.94968-4.49473,13.884-12.75178,11.02474-18.44545s-12.42957-6.66652-21.37543-2.17222l-.00003.00002Z" fill="#ffb6b6"/><polygon points="170.50291,149.82247 243.09692,222.98611 350.06122,177.40199 338.1924,150.70874 262.11191,176.74053 193.27579,115.68595 170.50291,149.82247" fill="#f5575e"/></g><circle r="39.3954" transform="translate(213.626 55.1278)" fill="#ffb6b6"/><path d="M200.93696,57.67721c.05771.00986.1442.0245.24904.04185c2.05136.33957,14.45374,2.25308,26.95784-2.51012c5.29715-2.01785,3.49015-2.52077,15.28773-9.53614c13.83138-8.22473,17.38101-8.16726,18.41101-12.0023c2.05667-7.65797-8.92542-19.69644-16.19439-18.90382-1.91376.20869-3.96328,1.34963-7.15104.57599-.70038-.16997-3.76626-.91402-5.26088-3.4518-1.33332-2.26389-.20403-3.89699-.74025-5.7537-1.40748-4.87362-13.14017-7.30582-23.42653-5.58734-5.91628.98842-10.51802,3.68683-19.47981,9.04331-15.59837,9.32311-23.39748,13.98468-25.15035,21.12671-1.66142,6.76935,2.32619,9.68619-.57391,16.93256-2.70041,6.74725-6.98935,6.29661-8.46524,11.75484-2.37505,8.78336,6.44004,18.42314,10.11211,22.4388c4.02599,4.40267,7.87633,6.81902,12.98792,10.02686c6.41596,4.02642,9.62385,6.03962,13.48076,5.83479c6.99272-.37136,13.94788-6.70843,14.21893-12.49513.10155-2.16864-.80314-2.81903-3.04218-10.2743-.93279-3.10603-1.57983-5.67019-1.97334-7.31533" fill="#2f2e41"/></g><rect width="763.382703" height="177.45878" rx="0" ry="0" transform="translate(-45.04117 220.442062)" fill="#d2dbed" stroke-width="0"/><ellipse rx="534.299611" ry="135.504233" transform="translate(551.774813 344.237084)" fill="#d2dbed" stroke-width="0"/><ellipse rx="534.299611" ry="135.504233" transform="translate(-232.430951 297.798578)" fill="#d2dbed" stroke-width="0"/></svg>
