<svg id="visual" viewBox="0 0 900 600" width="900" height="600" xmlns="http://www.w3.org/2000/svg" xmlns:xlink="http://www.w3.org/1999/xlink" version="1.1"><path d="M0 115L60 115L60 79L120 79L120 109L180 109L180 175L240 175L240 259L300 259L300 109L360 109L360 181L420 181L420 97L480 97L480 187L540 187L540 253L600 253L600 163L660 163L660 235L720 235L720 181L780 181L780 97L840 97L840 169L900 169L900 139L900 0L900 0L840 0L840 0L780 0L780 0L720 0L720 0L660 0L660 0L600 0L600 0L540 0L540 0L480 0L480 0L420 0L420 0L360 0L360 0L300 0L300 0L240 0L240 0L180 0L180 0L120 0L120 0L60 0L60 0L0 0Z" fill="#9f0246"></path><path d="M0 379L60 379L60 325L120 325L120 313L180 313L180 385L240 385L240 397L300 397L300 259L360 259L360 313L420 313L420 325L480 325L480 391L540 391L540 349L600 349L600 301L660 301L660 343L720 343L720 367L780 367L780 301L840 301L840 403L900 403L900 325L900 137L900 167L840 167L840 95L780 95L780 179L720 179L720 233L660 233L660 161L600 161L600 251L540 251L540 185L480 185L480 95L420 95L420 179L360 179L360 107L300 107L300 257L240 257L240 173L180 173L180 107L120 107L120 77L60 77L60 113L0 113Z" fill="#b80444"></path><path d="M0 421L60 421L60 445L120 445L120 391L180 391L180 469L240 469L240 445L300 445L300 361L360 361L360 355L420 355L420 397L480 397L480 457L540 457L540 427L600 427L600 397L660 397L660 463L720 463L720 457L780 457L780 415L840 415L840 463L900 463L900 439L900 323L900 401L840 401L840 299L780 299L780 365L720 365L720 341L660 341L660 299L600 299L600 347L540 347L540 389L480 389L480 323L420 323L420 311L360 311L360 257L300 257L300 395L240 395L240 383L180 383L180 311L120 311L120 323L60 323L60 377L0 377Z" fill="#cf123f"></path><path d="M0 553L60 553L60 553L120 553L120 499L180 499L180 541L240 541L240 523L300 523L300 505L360 505L360 529L420 529L420 565L480 565L480 553L540 553L540 529L600 529L600 565L660 565L660 547L720 547L720 553L780 553L780 535L840 535L840 547L900 547L900 553L900 437L900 461L840 461L840 413L780 413L780 455L720 455L720 461L660 461L660 395L600 395L600 425L540 425L540 455L480 455L480 395L420 395L420 353L360 353L360 359L300 359L300 443L240 443L240 467L180 467L180 389L120 389L120 443L60 443L60 419L0 419Z" fill="#e42437"></path><path d="M0 601L60 601L60 601L120 601L120 601L180 601L180 601L240 601L240 601L300 601L300 601L360 601L360 601L420 601L420 601L480 601L480 601L540 601L540 601L600 601L600 601L660 601L660 601L720 601L720 601L780 601L780 601L840 601L840 601L900 601L900 601L900 551L900 545L840 545L840 533L780 533L780 551L720 551L720 545L660 545L660 563L600 563L600 527L540 527L540 551L480 551L480 563L420 563L420 527L360 527L360 503L300 503L300 521L240 521L240 539L180 539L180 497L120 497L120 551L60 551L60 551L0 551Z" fill="#f7382a"></path></svg>